<svg xmlns="http://www.w3.org/2000/svg" viewBox="0 0 600 400" fill="none"><rect width="600" height="400" fill="#eae4d8"/><rect width="600" height="284" fill="#ede5d7"/><path d="M0 284H600V400H0Z" fill="#c5c0a9"/><rect x="67" y="76" width="128" height="144" fill="#ad8b68"/><rect x="78" y="87" width="106" height="121" fill="#ced3b4"/><circle cx="149" cy="116" r="17" fill="#ecdbaa"/><path d="M78 180L119 129L157 164L184 146V208H78Z" fill="#8a9c81"/><rect x="256" y="103" width="128" height="90" fill="#a28161"/><rect x="266" y="113" width="108" height="70" fill="#e0c0a1"/><path d="M268 171C291 135 327 134 373 159V183H268Z" fill="#a5b092"/><rect x="458" y="83" width="81" height="129" fill="#9a8063"/><rect x="468" y="94" width="61" height="107" fill="#e8d8c0"/><ellipse cx="498" cy="150" rx="20" ry="39" fill="#9aab8e"/><rect x="175" y="310" width="249" height="15" rx="4" fill="#8a745b"/><path d="M194 325V362M404 325V356" stroke="#8a745b" stroke-width="9"/><path d="M0 67H600" stroke="#d3c7b1" stroke-width="6"/></svg>